<svg version="1.2" xmlns="http://www.w3.org/2000/svg" viewBox="0 0 372 372" width="372" height="372">
	<title>049-amazon-svg</title>
	<style>
		.s0 { fill: #171715;stroke: #ffffff;paint-order:stroke fill markers;stroke-linejoin: round;stroke-width: 8 } 
		.s1 { fill: #ffac35;stroke: #ffffff;paint-order:stroke fill markers;stroke-linejoin: round;stroke-width: 8 } 
	</style>
	<g id="Folder 1">
		<g id="Layer">
			<path id="Layer copy" fill-rule="evenodd" class="s0" d="m276 237.1l-21.2 19.7c-5.9 5.5-15.1 4.8-20.1-1.4l-12.9-16c-2.4-2.8-6.7-3.1-9.3-0.5-16 15.2-33 21.5-42.1 23.6-4.9 1.1-78.2 9.1-78.2-60 0-69.1 69.1-78.4 87.3-78.4h24.1c3.7 0 6.7-3.1 6.6-6.8 0 0 0.1-8.5 0.1-26.3 0-12.3-14-16.5-24-16.5-25.7 0-34 14.8-38.8 24.8-2.5 5.3-8.1 8.4-13.9 7.8l-24.6-2.6c-8.7-0.9-14.3-9.3-11.9-17.6 6.1-21 25.7-54.9 89.3-54.9 78.2 0 76.2 58.3 76.2 85.7v68.6c0 6 1.7 11.9 5 16.9l10.6 16.3c3.6 5.6 2.7 13-2.2 17.6zm-81.9-29.8c11.1-7.8 17.4-20.9 17.1-34.5l-0.3-18.4c-37.6 1.2-51.6 18.7-56.9 28.6-5.6 10.5-6.3 32.7 18.2 32.7 7.4 0 14.9-3.5 21.9-8.4z"/>
			<path id="Layer copy 2" class="s1" d="m10.5 278.7c-3.8-3.3 0.3-9.3 4.8-7.1 31.7 15.6 91.4 39.8 157.4 39.8 67.4 0 123.8-16.1 152.2-26.1 4.6-1.6 8 4.5 4.2 7.6-22.6 18.2-70.9 46.4-154.6 46.4-83.4 0-137.6-36.7-164-60.6z"/>
			<path id="Layer copy 3" class="s1" d="m295.2 268.9c8.8-6.5 30.7-17.7 63.3-7.9 3 0.9 5.1 3.7 5.1 6.8 0.1 10.7-2.2 35.9-23.2 56.8-1.5 1.4-3.9 0-3.4-2 3.6-13.2 10.9-41.5 8.6-45.4-2.7-4.5-35.8-4.7-49.2-4.6-2 0-2.8-2.5-1.2-3.7z"/>
		</g>
	</g>
	<g id="Layer">
	</g>
	<g id="Layer">
	</g>
	<g id="Layer">
	</g>
	<g id="Layer">
	</g>
	<g id="Layer">
	</g>
	<g id="Layer">
	</g>
	<g id="Layer">
	</g>
	<g id="Layer">
	</g>
	<g id="Layer">
	</g>
	<g id="Layer">
	</g>
	<g id="Layer">
	</g>
	<g id="Layer">
	</g>
	<g id="Layer">
	</g>
	<g id="Layer">
	</g>
	<g id="Layer">
	</g>
</svg>